<svg width="24" height="24" viewBox="0 0 24 24" fill="none" xmlns="http://www.w3.org/2000/svg">
<rect width="24" height="24" rx="12" fill="#D9D9D9"/>
<g clip-path="url(#clip0_103_62)">
<path d="M3.77773 7.41664L2.99548 6.14164L8.04673 3.04639L8.82823 4.32589L3.77773 7.41664ZM19.7055 15.1626L16.6117 20.1749L17.8867 20.9631L20.9805 15.9501L19.7055 15.1626ZM18.693 13.9499L15 19.9371C14.8317 20.2222 14.6001 20.4648 14.3231 20.646C14.0461 20.8273 13.7311 20.9425 13.4025 20.9826C13.3079 20.9941 13.2127 20.9999 13.1175 20.9999C12.8314 21.0001 12.548 20.9436 12.2839 20.8337C12.0197 20.7237 11.78 20.5625 11.5785 20.3594L10.8562 19.6371C10.17 20.1174 9.33657 20.3406 8.50219 20.2674C7.66782 20.1942 6.88591 19.8294 6.29379 19.237C5.70167 18.6446 5.33721 17.8625 5.26441 17.0281C5.19161 16.1937 5.41514 15.3604 5.89573 14.6744L3.63973 12.4176C3.41088 12.1888 3.23577 11.9119 3.12708 11.6071C3.01839 11.3022 2.97884 10.977 3.01129 10.655C3.04373 10.333 3.14737 10.0222 3.31469 9.74515C3.48201 9.46811 3.70883 9.23174 3.97873 9.05314L9.80023 5.49064C10.9008 4.78524 12.1943 4.44138 13.4999 4.50714C14.8055 4.57289 16.0579 5.04498 17.082 5.85739L18.501 4.43839L19.5615 5.49889L18.1365 6.92389C18.9144 7.90834 19.3826 9.10157 19.4817 10.3524C19.5807 11.6032 19.3062 12.8552 18.693 13.9499ZM9.75748 18.5384L6.98848 15.7671C6.78252 16.1547 6.70711 16.5984 6.77346 17.0323C6.8398 17.4662 7.04436 17.8671 7.35673 18.1754C7.67146 18.4746 8.07054 18.67 8.49995 18.7349C8.92936 18.7998 9.36835 18.7312 9.75748 18.5384ZM16.5975 7.42489C15.8237 6.64512 14.8059 6.15436 13.7139 6.03451C12.622 5.91467 11.522 6.173 10.5975 6.76639L4.78348 10.3184C4.70394 10.374 4.63763 10.4464 4.58927 10.5305C4.54092 10.6147 4.51171 10.7084 4.50373 10.8051C4.4929 10.906 4.50495 11.008 4.53897 11.1036C4.57299 11.1991 4.62811 11.2858 4.70023 11.3571L12.6397 19.2989C12.7126 19.3739 12.8021 19.4306 12.901 19.4645C12.9999 19.4984 13.1054 19.5085 13.209 19.4939C13.3126 19.4814 13.4119 19.445 13.4991 19.3876C13.5863 19.3302 13.659 19.2534 13.7115 19.1631L17.4015 13.1834C17.9104 12.2663 18.1071 11.2085 17.9621 10.1697C17.8171 9.13097 17.3381 8.16756 16.5975 7.42489Z" fill="#374957"/>
</g>
<defs>
<clipPath id="clip0_103_62">
<rect width="18" height="18" fill="white" transform="translate(3 3)"/>
</clipPath>
</defs>
</svg>
