<svg width="30" height="30" viewBox="0 0 30 30" fill="none" xmlns="http://www.w3.org/2000/svg">
<path d="M15 2.36084C21.1074 2.36084 26.0583 7.31208 26.0586 13.4194C26.0586 21.6315 17.3749 26.455 15.3975 27.4468C15.1428 27.5745 14.8572 27.5745 14.6025 27.4468C12.6251 26.455 3.94141 21.6315 3.94141 13.4194C3.94166 7.31208 8.89259 2.36084 15 2.36084ZM15 8.68018C12.3826 8.68018 10.261 10.8021 10.2607 13.4194C10.2607 16.037 12.3825 18.1597 15 18.1597C17.6175 18.1597 19.7393 16.037 19.7393 13.4194C19.739 10.8021 17.6174 8.68018 15 8.68018Z" fill="#FF0000"/>
</svg>
