<svg width="24" height="24" viewBox="0 0 24 24" fill="none" xmlns="http://www.w3.org/2000/svg">
<g clip-path="url(#clip0_63_115)">
<path d="M23.2588 16.2002L20.6588 6.82917C20.1036 4.82459 18.8938 3.06331 17.2221 1.82566C15.5503 0.588005 13.5126 -0.0549039 11.4333 -0.000744217C9.35392 0.0534155 7.35245 0.801531 5.74738 2.12454C4.14231 3.44754 3.02588 5.26941 2.57579 7.30017L0.564793 16.3502C0.467486 16.7886 0.46986 17.2433 0.571739 17.6807C0.673618 18.1181 0.872403 18.5271 1.15343 18.8774C1.43445 19.2277 1.79055 19.5105 2.19544 19.7048C2.60033 19.8991 3.04368 20.0001 3.49279 20.0002H7.09979C7.32931 21.1305 7.94252 22.1466 8.83554 22.8766C9.72855 23.6065 10.8464 24.0052 11.9998 24.0052C13.1531 24.0052 14.271 23.6065 15.1641 22.8766C16.0571 22.1466 16.6703 21.1305 16.8998 20.0002H20.3698C20.8319 20 21.2877 19.893 21.7017 19.6876C22.1156 19.4823 22.4766 19.184 22.7563 18.8162C23.036 18.4484 23.227 18.0209 23.3144 17.5672C23.4017 17.1134 23.383 16.6455 23.2598 16.2002H23.2588ZM11.9998 22.0002C11.3815 21.9976 10.7792 21.8041 10.2751 21.4461C9.77102 21.0881 9.38988 20.5831 9.18379 20.0002H14.8158C14.6097 20.5831 14.2286 21.0881 13.7245 21.4461C13.2204 21.8041 12.6181 21.9976 11.9998 22.0002ZM21.1648 17.6052C21.0715 17.7289 20.9506 17.829 20.8117 17.8976C20.6727 17.9662 20.5197 18.0013 20.3648 18.0002H3.49279C3.34305 18.0001 3.19523 17.9665 3.06024 17.9017C2.92525 17.8369 2.80653 17.7426 2.71285 17.6258C2.61917 17.509 2.55291 17.3726 2.51898 17.2268C2.48505 17.0809 2.4843 16.9293 2.51679 16.7832L4.52779 7.73317C4.88215 6.13938 5.7591 4.70978 7.01925 3.67162C8.2794 2.63347 9.85042 2.04634 11.4826 2.00359C13.1147 1.96083 14.7143 2.46489 16.0271 3.43564C17.3399 4.40639 18.2905 5.78812 18.7278 7.36117L21.3278 16.7322C21.3702 16.8804 21.3776 17.0364 21.3493 17.1879C21.321 17.3394 21.2579 17.4823 21.1648 17.6052Z" fill="#374957"/>
</g>
<defs>
<clipPath id="clip0_63_115">
<rect width="24" height="24" fill="white"/>
</clipPath>
</defs>
</svg>
