<svg width="191" height="123" viewBox="0 0 191 123" fill="none" xmlns="http://www.w3.org/2000/svg">
<g filter="url(#filter0_d_55_275)">
<g clip-path="url(#clip0_55_275)">
<rect x="21" y="21" width="155" height="81" rx="8" fill="white"/>
<rect x="21" y="21" width="155" height="81" rx="8" fill="white"/>
<path d="M101 35.3608C107.107 35.3608 112.058 40.3121 112.059 46.4194C112.059 54.6315 103.375 59.455 101.397 60.4468C101.143 60.5745 100.857 60.5745 100.603 60.4468C98.6251 59.455 89.9414 54.6315 89.9414 46.4194C89.9417 40.3121 94.8926 35.3608 101 35.3608ZM101 41.6802C98.3826 41.6802 96.261 43.8021 96.2607 46.4194C96.2607 49.037 98.3825 51.1597 101 51.1597C103.618 51.1597 105.739 49.037 105.739 46.4194C105.739 43.8021 103.617 41.6802 101 41.6802Z" fill="#FFDE90"/>
<path d="M53 35.3608C59.1074 35.3608 64.0583 40.3121 64.0586 46.4194C64.0586 54.6315 55.3749 59.455 53.3975 60.4468C53.1428 60.5745 52.8572 60.5745 52.6025 60.4468C50.6251 59.455 41.9414 54.6315 41.9414 46.4194C41.9417 40.3121 46.8926 35.3608 53 35.3608ZM53 41.6802C50.3826 41.6802 48.261 43.8021 48.2607 46.4194C48.2607 49.037 50.3825 51.1597 53 51.1597C55.6175 51.1597 57.7393 49.037 57.7393 46.4194C57.739 43.8021 55.6174 41.6802 53 41.6802Z" fill="#00D262"/>
<path d="M149 35.3608C155.107 35.3608 160.058 40.3121 160.059 46.4194C160.059 54.6315 151.375 59.455 149.397 60.4468C149.143 60.5745 148.857 60.5745 148.603 60.4468C146.625 59.455 137.941 54.6315 137.941 46.4194C137.942 40.3121 142.893 35.3608 149 35.3608ZM149 41.6802C146.383 41.6802 144.261 43.8021 144.261 46.4194C144.261 49.037 146.382 51.1597 149 51.1597C151.618 51.1597 153.739 49.037 153.739 46.4194C153.739 43.8021 151.617 41.6802 149 41.6802Z" fill="#FF0000"/>
<path d="M47.0723 79.6367C47.8682 79.6367 48.5322 80.0762 48.9375 80.8379H50.8906V79.0117H52.1211V87.918H50.8906V84.5879H49.0352C48.6348 85.4668 47.9316 85.9746 47.0723 85.9746C45.7246 85.9746 44.7578 84.7539 44.7676 82.8008C44.7578 80.8672 45.7246 79.6367 47.0723 79.6367ZM47.0723 80.7598C46.4082 80.7598 45.9492 81.4824 45.959 82.8008C45.9492 84.1289 46.4082 84.8418 47.0723 84.8418C47.7461 84.8418 48.1855 84.1289 48.1855 82.8008C48.1855 81.4824 47.7461 80.7598 47.0723 80.7598ZM49.2891 81.8438C49.3428 82.1367 49.377 82.459 49.377 82.8008C49.377 83.0791 49.3525 83.3428 49.3184 83.5918H50.8906V81.8438H49.2891ZM61.3887 83.9531V84.959H59.4844V87.8984H58.2148V84.959H56.3984V87.8984H55.1191V84.959H53.2539V83.9531H61.3887ZM57.2969 79.3047C59.2012 79.3047 60.5391 80.0957 60.5391 81.3164C60.5391 82.5176 59.2012 83.2695 57.2969 83.2695C55.3926 83.2695 54.0645 82.5176 54.0742 81.3164C54.0645 80.0957 55.3926 79.3047 57.2969 79.3047ZM57.2969 80.3008C56.1055 80.3008 55.3438 80.6621 55.3535 81.3164C55.3438 81.9414 56.1055 82.293 57.2969 82.293C58.498 82.293 59.25 81.9414 59.25 81.3164C59.25 80.6621 58.498 80.3008 57.2969 80.3008Z" fill="#00D162"/>
<path d="M148.727 84.1387V85.1055H140.621V84.1387H144.049V83.6406C142.53 83.543 141.676 83.0693 141.686 82.2832C141.676 81.4043 142.77 80.9355 144.674 80.9355C146.568 80.9355 147.662 81.4043 147.662 82.2832C147.662 83.0693 146.808 83.543 145.299 83.6406V84.1387H148.727ZM147.809 86.7656V87.7422H141.598V85.5254H142.848V86.7656H147.809ZM148.307 79.7441V80.6816H141.012V79.7441H144.049V78.9629H145.299V79.7441H148.307ZM144.674 81.8047C143.482 81.8047 142.945 81.9414 142.955 82.2832C142.945 82.625 143.482 82.7715 144.674 82.7715C145.846 82.7715 146.383 82.625 146.383 82.2832C146.383 81.9414 145.846 81.8047 144.674 81.8047ZM154.293 79.5V80.4961H152.525C152.56 81.4678 153.189 82.4395 154.605 82.8496L154.02 83.8066C153.009 83.5186 152.311 82.918 151.91 82.1562C151.515 83.0059 150.792 83.6748 149.732 83.9922L149.098 83.0059C150.548 82.5762 151.227 81.5361 151.266 80.4961H149.449V79.5H154.293ZM156.314 79.0117V80.9062H157.516V81.9219H156.314V83.9043H155.064V79.0117H156.314ZM151.725 84.2656V85.0762H155.064V84.2656H156.314V87.8008H150.475V84.2656H151.725ZM151.725 86.8047H155.064V86.0332H151.725V86.8047Z" fill="#FF0000"/>
<rect x="69" y="82" width="63" height="3" fill="url(#paint0_linear_55_275)"/>
</g>
</g>
<defs>
<filter id="filter0_d_55_275" x="0" y="0" width="197" height="123" filterUnits="userSpaceOnUse" color-interpolation-filters="sRGB">
<feFlood flood-opacity="0" result="BackgroundImageFix"/>
<feColorMatrix in="SourceAlpha" type="matrix" values="0 0 0 0 0 0 0 0 0 0 0 0 0 0 0 0 0 0 127 0" result="hardAlpha"/>
<feMorphology radius="6" operator="dilate" in="SourceAlpha" result="effect1_dropShadow_55_275"/>
<feOffset/>
<feGaussianBlur stdDeviation="7.5"/>
<feComposite in2="hardAlpha" operator="out"/>
<feColorMatrix type="matrix" values="0 0 0 0 0 0 0 0 0 0 0 0 0 0 0 0 0 0 0.25 0"/>
<feBlend mode="normal" in2="BackgroundImageFix" result="effect1_dropShadow_55_275"/>
<feBlend mode="normal" in="SourceGraphic" in2="effect1_dropShadow_55_275" result="shape"/>
</filter>
<linearGradient id="paint0_linear_55_275" x1="69" y1="83.5" x2="132" y2="83.5" gradientUnits="userSpaceOnUse">
<stop stop-color="#00D162"/>
<stop offset="0.5" stop-color="#FFDE90"/>
<stop offset="1" stop-color="#FF0000"/>
</linearGradient>
<clipPath id="clip0_55_275">
<rect x="21" y="21" width="155" height="81" rx="8" fill="white"/>
</clipPath>
</defs>
</svg>
