<svg width="24" height="24" viewBox="0 0 24 24" fill="none" xmlns="http://www.w3.org/2000/svg">
<circle cx="12" cy="9" r="4" fill="#33363F"/>
<circle cx="17" cy="9" r="3" fill="#33363F"/>
<circle cx="7" cy="9" r="3" fill="#33363F"/>
<path d="M17.0001 13C19.4479 13.0001 20.4288 15.4456 20.797 16.916C20.9407 17.4899 20.4863 18 19.8947 18H17.5685C17.1654 16.4903 16.3856 14.778 14.8781 13.7998C15.4202 13.321 16.1139 13 17.0001 13Z" fill="#33363F"/>
<path d="M7 13C7.88599 13 8.57903 13.3212 9.12109 13.7998C7.61395 14.7781 6.83465 16.4905 6.43164 18H4.10449C3.51309 17.9997 3.05944 17.4898 3.20312 16.916C3.57139 15.4456 4.55216 13 7 13Z" fill="#33363F"/>
<path d="M12 14C15.7087 14 16.6665 17.301 16.9139 19.0061C16.9932 19.5526 16.5523 20 16 20H8C7.44772 20 7.00684 19.5526 7.08614 19.0061C7.33351 17.301 8.29134 14 12 14Z" fill="#33363F"/>
</svg>
