<svg width="103" height="26" viewBox="0 0 103 26" fill="none" xmlns="http://www.w3.org/2000/svg">
<g clip-path="url(#clip0_125_454)">
<path d="M23.7771 1.9191V9.32684L26.1036 8.82787V13.6103L23.7771 14.1092V24.0847H18.8639V1.9191H23.7771ZM15.9696 2.60998L12.2512 12.3091H16.9633V22.7836H12.0501V12.835L8.24493 22.7836H2.99261L8.8995 7.39238H1.97132L3.67478 2.60998H15.9696ZM23.7771 0H18.8639C18.099 0 17.4365 0.426041 17.1092 1.04399C16.7819 0.817538 16.3837 0.690877 15.9696 0.690877H3.67478C2.83488 0.690877 2.08568 1.20903 1.81359 1.98051L0.110138 6.76292C-0.0988507 7.35016 -0.00421425 7.99882 0.366445 8.50546C0.737105 9.0121 1.33647 9.31149 1.97132 9.31149H6.05646L1.1472 22.1119C0.922435 22.703 1.00524 23.3593 1.3759 23.8775C1.74262 24.3956 2.34987 24.7027 2.99655 24.7027H8.24888C9.073 24.7027 9.81038 24.2037 10.0982 23.4514L10.1574 23.3017C10.39 24.1116 11.1511 24.7027 12.058 24.7027H16.9712C16.9712 24.7027 16.9949 24.7027 17.0067 24.7027C17.2709 25.4588 18.0083 26 18.8718 26H23.785C24.8734 26 25.7566 25.1402 25.7566 24.0809V15.6484L26.5374 15.4833C27.4404 15.2914 28.0871 14.5084 28.0871 13.6103V8.82787C28.0871 8.2483 27.815 7.6956 27.3497 7.33097C26.9948 7.05462 26.561 6.90877 26.1155 6.90877C25.9972 6.90877 25.8789 6.92028 25.7606 6.93947V1.9191C25.7606 0.859758 24.8773 0 23.789 0H23.7771ZM15.0903 10.39L16.8923 5.68822V10.39H15.0903Z" fill="#F04B29"/>
<path d="M50.6896 1.9191V24.0809H45.7764V1.9191H50.6896ZM43.4223 2.33363V14.9076H33.0044V17.9474H43.4223V22.7299H28.0912V10.1252H38.5091V7.11219H28.0912V2.33363H43.4223ZM50.6896 0H45.7764C45.2007 0 44.6802 0.241807 44.3214 0.625627C44.0532 0.49129 43.7457 0.414526 43.4223 0.414526H28.0912C27.0029 0.414526 26.1196 1.27428 26.1196 2.33363V7.11603C26.1196 7.72631 26.4114 8.27133 26.8688 8.62061C26.4114 8.97372 26.1196 9.51491 26.1196 10.1252V22.726C26.1196 23.7854 27.0029 24.6451 28.0912 24.6451H43.4223C43.5801 24.6451 43.7338 24.6259 43.8797 24.5952C44.1085 25.4051 44.8734 26 45.7804 26H50.6936C51.7819 26 52.6652 25.1402 52.6652 24.0809V1.9191C52.6652 0.859758 51.7819 0 50.6936 0H50.6896Z" fill="#F04B29"/>
<path d="M75.4489 1.9191V24.0809H70.5357V14.0478L68.3512 14.4892V15.5102C68.3512 16.8919 68.0003 18.1662 67.3023 19.3369C66.6004 20.5075 65.6501 21.4325 64.4475 22.1157C63.2448 22.7989 61.9356 23.1367 60.5161 23.1367C59.0966 23.1367 57.7874 22.7951 56.5847 22.1157C55.3821 21.4325 54.4318 20.5075 53.7299 19.3369C53.028 18.1662 52.681 16.8919 52.681 15.5102V9.54178C52.681 8.16002 53.0319 6.88574 53.7299 5.71509C54.4318 4.54443 55.3821 3.61943 56.5847 2.93623C57.7874 2.25686 59.0966 1.91526 60.5161 1.91526C61.9356 1.91526 63.2448 2.25686 64.4475 2.93623C65.6501 3.61943 66.6004 4.54443 67.3023 5.71509C68.0042 6.88574 68.3512 8.16002 68.3512 9.54178V9.70682L70.5357 9.26543V1.9191H75.4489ZM60.5122 18.4464C61.3442 18.4464 62.0539 18.1624 62.6415 17.5905C63.229 17.0186 63.5208 16.3277 63.5208 15.5179V9.54945C63.5208 8.73959 63.2251 8.04872 62.6415 7.47682C62.0539 6.90493 61.3442 6.6209 60.5122 6.6209C59.6801 6.6209 58.9704 6.90493 58.3828 7.47682C57.7953 8.04872 57.5035 8.73959 57.5035 9.54945V15.5179C57.5035 16.3085 57.8032 16.9956 58.3986 17.5751C58.994 18.1547 59.6999 18.4464 60.5122 18.4464ZM75.4489 0H70.5357C69.4474 0 68.5641 0.859758 68.5641 1.9191V4.08385C67.744 2.93623 66.6951 1.99587 65.4372 1.2858C63.9348 0.433717 62.2787 0.0038382 60.5122 0.0038382C58.7456 0.0038382 57.0895 0.433717 55.5871 1.2858C54.0926 2.13404 52.8939 3.30086 52.0225 4.75554C51.1471 6.21789 50.7054 7.82994 50.7054 9.54945V15.5179C50.7054 17.2374 51.1471 18.8494 52.0225 20.3118C52.8939 21.7665 54.0926 22.9333 55.5871 23.7815C57.0895 24.6336 58.7456 25.0635 60.5122 25.0635C62.2787 25.0635 63.9348 24.6336 65.4372 23.7815C66.6951 23.0676 67.744 22.1272 68.5641 20.9835V24.0886C68.5641 25.1479 69.4474 26.0077 70.5357 26.0077H75.4489C76.5373 26.0077 77.4205 25.1479 77.4205 24.0886V1.9191C77.4205 0.859758 76.5373 0 75.4489 0ZM60.5122 16.5273C60.2716 16.5273 60.0547 16.4736 59.7906 16.2203C59.5264 15.9631 59.4751 15.7558 59.4751 15.5179V9.54945C59.4751 9.24623 59.5618 9.04665 59.7787 8.83555C59.9956 8.62445 60.2006 8.54001 60.5122 8.54001C60.8237 8.54001 61.0287 8.62445 61.2495 8.83555C61.4664 9.04665 61.5532 9.24623 61.5532 9.54945V15.5179C61.5532 15.8211 61.4664 16.0207 61.2495 16.2318C61.0327 16.4429 60.8237 16.5273 60.5161 16.5273H60.5122Z" fill="#F04B29"/>
<path d="M101.028 1.9191V24.0809H96.7973V14.1323L96.3163 14.2436V24.0809H92.0852V1.9191H96.3163V9.46501L96.7973 9.35371V1.9191H101.028ZM91.4898 2.33363V7.11603H88.1972V17.9474H91.4898V22.7298H78.288V2.33363H91.4898ZM82.5151 17.9474H83.9622V7.11603H82.5151V17.9474ZM101.028 0H96.7973C96.7145 0 96.6357 0.0038382 96.5568 0.0153528C96.4779 0.00767641 96.3991 0 96.3163 0H92.0852C91.6239 0 91.198 0.153528 90.8628 0.414526H78.288C77.1997 0.414526 76.3164 1.27428 76.3164 2.33363V22.7298C76.3164 23.7892 77.1997 24.649 78.288 24.649H90.2004C90.4488 25.4319 91.198 26.0038 92.0852 26.0038H96.3163C96.3991 26.0038 96.4779 26 96.5568 25.9885C96.6357 25.9962 96.7145 26.0038 96.7973 26.0038H101.028C102.117 26.0038 103 25.1441 103 24.0847V1.9191C103 0.859758 102.117 0 101.028 0Z" fill="#F04B29"/>
</g>
<defs>
<clipPath id="clip0_125_454">
<rect width="103" height="26" fill="white"/>
</clipPath>
</defs>
</svg>
